<svg id="Capa_1" data-name="Capa 1" xmlns="http://www.w3.org/2000/svg" viewBox="0 0 230.04 239.83"><defs><style>.cls-1{fill:#e30613;stroke:#e30613;stroke-miterlimit:10;stroke-width:3px;}</style></defs><title>Logo_minca</title><path class="cls-1" d="M279.17,392.91v-144a46,46,0,0,0-45.86-45.86H174.73a46,46,0,0,0-45.86,45.86v144l-0.06.09a22.81,22.81,0,0,1-38.81-.1h0V239.73a73.77,73.77,0,0,1,73.56-73.56h80.93A73.77,73.77,0,0,1,318,239.73V392.91h0a22.55,22.55,0,0,1-38.37.78Z" transform="translate(-89 -165.17)"/><rect class="cls-1" x="94.29" y="182.09" width="45.46" height="56.74" rx="18.5" ry="18.5"/></svg>